<?xml version="1.0" encoding="utf-8"?>
<!-- Generator: Adobe Illustrator 16.0.0, SVG Export Plug-In . SVG Version: 6.00 Build 0)  -->
<!DOCTYPE svg PUBLIC "-//W3C//DTD SVG 1.1//EN" "http://www.w3.org/Graphics/SVG/1.1/DTD/svg11.dtd">
<svg version="1.1" id="Layer_1" xmlns="http://www.w3.org/2000/svg" xmlns:xlink="http://www.w3.org/1999/xlink" x="0px" y="0px"
	 width="56.966px" height="86.482px" viewBox="0 0 56.966 86.482" enable-background="new 0 0 56.966 86.482" xml:space="preserve">
<g>
	<path fill="#060E9F" d="M28.412,9.795c-11.047,0-20,8.957-20,20c0,19.098,20,44,20,44s20-24.902,20-44
		C48.412,18.752,39.459,9.795,28.412,9.795L28.412,9.795z"/>
	<path d="M28.412,40.834"/>
	<path fill="#FFFFFF" d="M43.469,29.773l0.107-0.151l-0.119-0.084c-0.213-6.938-5.128-12.703-11.667-14.208l-0.052-0.131
		l-0.18,0.072c-0.367-0.078-0.741-0.132-1.117-0.183l-0.071-0.088l-0.081,0.065c-0.616-0.077-1.24-0.13-1.877-0.13
		c-1.424,0-2.798,0.212-4.105,0.583l-0.028-0.004l-0.002,0.012c-6.137,1.756-10.672,7.307-10.907,13.944l-0.043,0.034l0.04,0.05
		c-0.004,0.151-0.023,0.298-0.023,0.449c0,3.423,1.161,6.573,3.091,9.106c0.042,0.083,0.08,0.17,0.123,0.252l0.234,0.442
		l0.134-0.071c1.858,2.19,4.327,3.845,7.145,4.695l0.299,0.3l0.178-0.178c1.106,0.295,2.259,0.468,3.448,0.5l0.139,0.214
		l0.294-0.193c0.983-0.001,1.943-0.103,2.874-0.284l0.157,0.07l0.049-0.108c1.792-0.376,3.462-1.08,4.959-2.033l0.156,0.11
		l0.261-0.371c1.421-0.97,2.656-2.184,3.672-3.569c0.106-0.078,0.217-0.146,0.321-0.226l0.398-0.304l-0.186-0.242
		c1.062-1.655,1.806-3.528,2.153-5.539l0.127-0.01l-0.039-0.497c-0.001-0.013-0.003-0.024-0.004-0.037
		c0.09-0.665,0.152-1.338,0.152-2.027C43.48,29.924,43.47,29.85,43.469,29.773z M39.701,37.993c-0.24,0.174-0.48,0.35-0.727,0.511
		c0.637-1.709,0.981-3.491,1.006-5.292c0.757-0.506,1.444-1.075,2.061-1.701c0.019,0.165,0.043,0.326,0.057,0.493
		C41.776,34.211,40.938,36.25,39.701,37.993z M32.109,43.333c0.123-0.312,0.236-0.633,0.348-0.955
		c1.282-0.23,2.521-0.585,3.714-1.059c-0.054,0.082-0.104,0.165-0.161,0.247C34.824,42.347,33.511,42.944,32.109,43.333z
		 M28.68,43.835c-0.235-0.377-0.465-0.758-0.677-1.15c0.245,0.008,0.489,0.029,0.734,0.029c0.803,0,1.586-0.059,2.36-0.144
		c-0.138,0.367-0.286,0.726-0.441,1.08C30.01,43.756,29.352,43.823,28.68,43.835z M24.721,43.334
		c-0.401-0.412-0.777-0.834-1.128-1.267c0.981,0.249,1.985,0.419,3.001,0.523c0.202,0.406,0.413,0.807,0.638,1.198
		C26.369,43.716,25.532,43.559,24.721,43.334z M16.169,23.548c0.127,0.689,0.443,1.343,0.916,1.948
		c-0.71,1.29-1.325,2.791-1.739,4.509c-0.261-0.274-0.511-0.555-0.739-0.848C14.729,27.143,15.273,25.242,16.169,23.548z
		 M41.211,24.728c-0.244-0.437-0.509-0.856-0.791-1.262c0.015-0.096,0.018-0.193,0.025-0.291
		C40.73,23.675,40.989,24.191,41.211,24.728z M19.948,19.67c-0.01,0.086-0.025,0.171-0.025,0.259c0,0.454,0.135,0.889,0.383,1.297
		c-0.154,0.153-0.312,0.299-0.461,0.458c-0.667,0.711-1.386,1.604-2.069,2.655c-0.287-0.475-0.449-0.973-0.449-1.486
		C17.326,21.611,18.303,20.509,19.948,19.67z M38.944,21.678c-0.065-0.068-0.124-0.143-0.191-0.209
		c-0.622-0.617-1.305-1.161-2.026-1.657c-0.002-0.043-0.008-0.086-0.012-0.129C37.781,20.242,38.549,20.92,38.944,21.678z
		 M16.104,32.659c0.01-0.104,0.031-0.203,0.043-0.306c0.813,0.622,1.706,1.179,2.667,1.662c0.226,1.981,0.828,3.892,1.771,5.699
		c-1.221-0.559-2.38-1.235-3.446-2.038C16.591,36.28,16.253,34.647,16.104,32.659z M21.144,19.93c0-0.302,0.137-0.611,0.381-0.912
		c0.719-0.242,1.51-0.446,2.367-0.604c-0.001,0.006-0.001,0.013-0.003,0.019c-0.917,0.537-1.806,1.189-2.653,1.926
		C21.18,20.216,21.144,20.072,21.144,19.93z M32.757,32.966c0,0.566-0.021,1.127-0.051,1.685c-1.332,0.222-2.749,0.344-4.253,0.344
		c-1.001,0-1.988-0.072-2.952-0.204c-0.139-1.075-0.215-2.172-0.215-3.288c0-0.711,0.035-1.457,0.099-2.219
		c0.93,0.12,1.899,0.189,2.905,0.189c1.483,0,2.891-0.144,4.194-0.397C32.653,30.346,32.757,31.644,32.757,32.966z M19.925,32.194
		c0-1.479,0.193-2.886,0.551-4.223c1.084,0.486,2.337,0.864,3.703,1.123c-0.073,0.829-0.114,1.639-0.114,2.41
		c0,1.044,0.072,2.071,0.189,3.083c-1.517-0.301-2.955-0.766-4.276-1.367C19.955,32.879,19.925,32.539,19.925,32.194z
		 M28.612,18.709c0.322,0.437,0.625,0.901,0.914,1.388c-0.378,0.072-0.792,0.116-1.236,0.116c-0.181,0-0.353-0.012-0.523-0.025
		C28.026,19.667,28.31,19.176,28.612,18.709z M30.719,19.708c-0.248-0.434-0.504-0.858-0.777-1.258
		c0.493,0.237,0.971,0.493,1.428,0.771C31.231,19.395,31.012,19.562,30.719,19.708z M27.03,19.006
		c-0.172,0.313-0.336,0.635-0.493,0.965c-0.197-0.058-0.381-0.122-0.545-0.195C26.325,19.511,26.67,19.254,27.03,19.006z
		 M27.238,21.356c0.338,0.046,0.687,0.077,1.052,0.077c0.663,0,1.284-0.084,1.846-0.229c0.255,0.504,0.497,1.022,0.717,1.564
		c-0.772,0.129-1.615,0.207-2.521,0.207c-0.581,0-1.135-0.033-1.664-0.088C26.84,22.363,27.032,21.853,27.238,21.356z
		 M32.053,22.508c-0.238-0.602-0.498-1.179-0.776-1.738c0.467-0.243,0.849-0.539,1.104-0.879c0.701,0.502,1.352,1.055,1.946,1.656
		C33.749,21.924,32.976,22.257,32.053,22.508z M25.016,20.608c0.299,0.188,0.648,0.344,1.034,0.472
		c-0.214,0.53-0.415,1.072-0.593,1.626c-0.72-0.141-1.364-0.332-1.926-0.556C23.983,21.613,24.48,21.1,25.016,20.608z
		 M24.103,19.729c0.006,0.011,0.01,0.022,0.017,0.033c-0.625,0.577-1.199,1.186-1.719,1.823c-0.145-0.092-0.281-0.186-0.403-0.283
		C22.675,20.709,23.379,20.182,24.103,19.729z M22.758,23.143c0.69,0.307,1.48,0.558,2.35,0.736
		c-0.359,1.319-0.622,2.667-0.794,3.987c-1.287-0.255-2.458-0.629-3.463-1.093C21.316,25.482,21.954,24.269,22.758,23.143z
		 M28.29,28.254c-0.956,0-1.884-0.07-2.775-0.19c0.168-1.325,0.428-2.679,0.791-3.994c0.648,0.079,1.323,0.125,2.025,0.125
		c1.047,0,2.038-0.097,2.955-0.267c0.429,1.243,0.765,2.562,1.009,3.934C31.047,28.111,29.696,28.254,28.29,28.254z M32.483,23.652
		c1.059-0.299,1.965-0.711,2.668-1.207c0.866,1.033,1.59,2.18,2.154,3.433c-0.988,0.703-2.301,1.292-3.823,1.707
		C33.236,26.22,32.907,24.9,32.483,23.652z M35.233,20.719c-0.337-0.343-0.691-0.668-1.059-0.981
		c0.426,0.205,0.836,0.429,1.232,0.67C35.362,20.512,35.306,20.616,35.233,20.719z M21.112,22.138
		c0.169,0.145,0.354,0.283,0.555,0.416c-0.795,1.133-1.433,2.35-1.911,3.641c-0.438-0.269-0.825-0.557-1.155-0.862
		C19.332,24.147,20.181,23.077,21.112,22.138z M38.253,25.056c-0.575-1.207-1.28-2.34-2.132-3.368
		c-0.018-0.021-0.038-0.04-0.056-0.06c0.144-0.171,0.259-0.35,0.358-0.532c0.517,0.382,1.015,0.787,1.471,1.239
		c0.434,0.43,0.825,0.901,1.196,1.39C38.93,24.19,38.647,24.636,38.253,25.056z M19.365,27.394c-0.429,1.513-0.66,3.114-0.66,4.8
		c0,0.134,0.017,0.266,0.021,0.4c-0.859-0.479-1.65-1.024-2.363-1.626c0.327-1.631,0.89-3.153,1.62-4.548
		C18.386,26.769,18.85,27.095,19.365,27.394z M20.144,34.618c1.342,0.551,2.785,0.968,4.291,1.237
		c0.316,1.897,0.838,3.719,1.561,5.435c-1.217-0.17-2.413-0.444-3.566-0.834C21.252,38.626,20.483,36.664,20.144,34.618z
		 M25.706,36.045c0.901,0.109,1.818,0.171,2.748,0.171c1.461,0,2.848-0.109,4.16-0.312c-0.185,1.878-0.548,3.688-1.077,5.386
		c-0.913,0.129-1.844,0.203-2.8,0.203c-0.453,0-0.904-0.023-1.354-0.055C26.609,39.749,26.052,37.937,25.706,36.045z M33.854,35.679
		c1.803-0.38,3.437-0.96,4.875-1.728c-0.128,1.91-0.639,3.789-1.511,5.559c-1.377,0.698-2.827,1.21-4.344,1.538
		C33.361,39.343,33.692,37.542,33.854,35.679z M33.943,34.391c0.021-0.472,0.034-0.947,0.034-1.424c0-1.414-0.112-2.803-0.299-4.16
		c1.603-0.42,3.002-1.02,4.104-1.76c0.596,1.675,0.918,3.515,0.965,5.479C37.364,33.356,35.748,33.977,33.943,34.391z
		 M38.771,26.264c0.46-0.423,0.843-0.875,1.122-1.356c0.894,1.479,1.533,3.162,1.902,5.01c-0.546,0.663-1.149,1.284-1.855,1.823
		C39.82,29.801,39.424,27.965,38.771,26.264z M15.062,31.44c-0.063,0.397-0.134,0.787-0.173,1.204
		c0.012,0.162,0.028,0.314,0.042,0.471c-0.159-0.687-0.264-1.392-0.315-2.113C14.761,31.151,14.909,31.297,15.062,31.44z
		 M21.611,41.45c0.223,0.33,0.469,0.651,0.717,0.973c-1.052-0.518-2.031-1.159-2.913-1.915C20.126,40.864,20.86,41.177,21.611,41.45
		z"/>
</g>
</svg>
