<?xml version="1.0" encoding="utf-8"?>
<!-- Generator: Adobe Illustrator 16.0.0, SVG Export Plug-In . SVG Version: 6.00 Build 0)  -->
<!DOCTYPE svg PUBLIC "-//W3C//DTD SVG 1.1//EN" "http://www.w3.org/Graphics/SVG/1.1/DTD/svg11.dtd">
<svg version="1.1" id="Layer_1" xmlns="http://www.w3.org/2000/svg" xmlns:xlink="http://www.w3.org/1999/xlink" x="0px" y="0px"
	 width="61px" height="79px" viewBox="0 0 61 79" enable-background="new 0 0 61 79" xml:space="preserve">
<g>
	<path fill="#C7B030" d="M29,7C17.953,7,9,15.957,9,27c0,19.098,20,44,20,44s20-24.902,20-44C49,15.957,40.047,7,29,7L29,7z"/>
	<path d="M29,38.039"/>
	<path fill="#FFFFFF" d="M44.057,26.978l0.107-0.151l-0.119-0.084c-0.213-6.938-5.128-12.703-11.667-14.208l-0.052-0.131
		l-0.18,0.072c-0.367-0.078-0.741-0.132-1.117-0.183l-0.071-0.088l-0.081,0.065c-0.616-0.077-1.24-0.13-1.877-0.13
		c-1.424,0-2.798,0.212-4.105,0.583l-0.028-0.004l-0.002,0.012c-6.137,1.756-10.672,7.307-10.907,13.944l-0.043,0.034l0.04,0.05
		c-0.004,0.151-0.023,0.298-0.023,0.449c0,3.423,1.161,6.573,3.091,9.106c0.042,0.083,0.08,0.17,0.123,0.252l0.234,0.442
		l0.134-0.071c1.858,2.19,4.327,3.845,7.145,4.695l0.299,0.3l0.178-0.178c1.106,0.295,2.259,0.468,3.448,0.5l0.139,0.214
		l0.294-0.193c0.983-0.001,1.943-0.103,2.874-0.284l0.157,0.07l0.049-0.108c1.792-0.376,3.462-1.08,4.959-2.033l0.156,0.11
		l0.261-0.371c1.421-0.97,2.656-2.184,3.672-3.569c0.106-0.078,0.217-0.146,0.321-0.226l0.398-0.304l-0.186-0.242
		c1.062-1.655,1.806-3.528,2.153-5.539l0.127-0.01l-0.039-0.497c-0.001-0.013-0.003-0.024-0.004-0.037
		c0.09-0.665,0.152-1.338,0.152-2.027C44.068,27.129,44.058,27.054,44.057,26.978z M40.289,35.197
		c-0.24,0.174-0.48,0.35-0.727,0.511c0.637-1.709,0.981-3.491,1.006-5.292c0.757-0.506,1.444-1.075,2.061-1.701
		c0.019,0.165,0.043,0.326,0.057,0.493C42.364,31.416,41.526,33.455,40.289,35.197z M32.697,40.537
		c0.123-0.312,0.236-0.633,0.348-0.955c1.282-0.23,2.521-0.585,3.714-1.059c-0.054,0.082-0.104,0.165-0.161,0.247
		C35.412,39.552,34.099,40.148,32.697,40.537z M29.268,41.04c-0.235-0.377-0.465-0.758-0.677-1.15
		c0.245,0.008,0.489,0.029,0.734,0.029c0.803,0,1.586-0.059,2.36-0.144c-0.138,0.367-0.286,0.726-0.441,1.08
		C30.598,40.961,29.939,41.027,29.268,41.04z M25.309,40.539c-0.401-0.412-0.777-0.834-1.128-1.267
		c0.981,0.249,1.985,0.419,3.001,0.523c0.202,0.406,0.413,0.807,0.638,1.198C26.957,40.921,26.12,40.764,25.309,40.539z
		 M16.757,20.753c0.127,0.689,0.443,1.343,0.916,1.948c-0.71,1.29-1.325,2.791-1.739,4.509c-0.261-0.274-0.511-0.555-0.739-0.848
		C15.317,24.348,15.861,22.446,16.757,20.753z M41.799,21.932c-0.244-0.437-0.509-0.856-0.791-1.262
		c0.015-0.096,0.018-0.193,0.025-0.291C41.318,20.88,41.577,21.396,41.799,21.932z M20.536,16.875
		c-0.01,0.086-0.025,0.171-0.025,0.259c0,0.454,0.135,0.889,0.383,1.297c-0.154,0.153-0.312,0.299-0.461,0.458
		c-0.667,0.711-1.386,1.604-2.069,2.655c-0.287-0.475-0.449-0.973-0.449-1.486C17.914,18.815,18.891,17.713,20.536,16.875z
		 M39.532,18.883c-0.065-0.068-0.124-0.143-0.191-0.209c-0.622-0.617-1.305-1.161-2.026-1.657c-0.002-0.043-0.008-0.086-0.012-0.129
		C38.369,17.447,39.137,18.125,39.532,18.883z M16.692,29.863c0.01-0.104,0.031-0.203,0.043-0.306
		c0.813,0.622,1.706,1.179,2.667,1.662c0.226,1.981,0.828,3.892,1.771,5.699c-1.221-0.559-2.38-1.235-3.446-2.038
		C17.179,33.485,16.841,31.852,16.692,29.863z M21.731,17.134c0-0.302,0.137-0.611,0.381-0.912c0.719-0.242,1.51-0.446,2.367-0.604
		c-0.001,0.006-0.001,0.013-0.003,0.019c-0.917,0.537-1.806,1.189-2.653,1.926C21.768,17.42,21.731,17.276,21.731,17.134z
		 M33.345,30.171c0,0.566-0.021,1.127-0.051,1.685c-1.332,0.222-2.749,0.344-4.253,0.344c-1.001,0-1.988-0.072-2.952-0.204
		c-0.139-1.075-0.215-2.172-0.215-3.288c0-0.711,0.035-1.457,0.099-2.219c0.93,0.12,1.899,0.189,2.905,0.189
		c1.483,0,2.891-0.144,4.194-0.397C33.241,27.551,33.345,28.849,33.345,30.171z M20.513,29.399c0-1.479,0.193-2.886,0.551-4.223
		c1.084,0.486,2.337,0.864,3.703,1.123c-0.073,0.829-0.114,1.639-0.114,2.41c0,1.044,0.072,2.071,0.189,3.083
		c-1.517-0.301-2.955-0.766-4.276-1.367C20.543,30.084,20.513,29.744,20.513,29.399z M29.2,15.914
		c0.322,0.437,0.625,0.901,0.914,1.388c-0.378,0.072-0.792,0.116-1.236,0.116c-0.181,0-0.353-0.012-0.523-0.025
		C28.614,16.872,28.898,16.38,29.2,15.914z M31.307,16.913c-0.248-0.434-0.504-0.858-0.777-1.258
		c0.493,0.237,0.971,0.493,1.428,0.771C31.819,16.6,31.6,16.767,31.307,16.913z M27.618,16.21c-0.172,0.313-0.336,0.635-0.493,0.965
		c-0.197-0.058-0.381-0.122-0.545-0.195C26.913,16.715,27.258,16.458,27.618,16.21z M27.826,18.561
		c0.338,0.046,0.687,0.077,1.052,0.077c0.663,0,1.284-0.084,1.846-0.229c0.255,0.504,0.497,1.022,0.717,1.564
		c-0.772,0.129-1.615,0.207-2.521,0.207c-0.581,0-1.135-0.033-1.664-0.088C27.428,19.568,27.62,19.058,27.826,18.561z
		 M32.641,19.712c-0.238-0.602-0.498-1.179-0.776-1.738c0.467-0.243,0.849-0.539,1.104-0.879c0.701,0.502,1.352,1.055,1.946,1.656
		C34.337,19.128,33.563,19.462,32.641,19.712z M25.604,17.813c0.299,0.188,0.648,0.344,1.034,0.472
		c-0.214,0.53-0.415,1.072-0.593,1.626c-0.72-0.141-1.364-0.332-1.926-0.556C24.571,18.818,25.068,18.304,25.604,17.813z
		 M24.69,16.934c0.006,0.011,0.01,0.022,0.017,0.033c-0.625,0.577-1.199,1.186-1.719,1.823c-0.145-0.092-0.281-0.186-0.403-0.283
		C23.263,17.914,23.967,17.387,24.69,16.934z M23.346,20.348c0.69,0.307,1.48,0.558,2.35,0.736
		c-0.359,1.319-0.622,2.667-0.794,3.987c-1.287-0.255-2.458-0.629-3.463-1.093C21.904,22.687,22.542,21.473,23.346,20.348z
		 M28.878,25.458c-0.956,0-1.884-0.07-2.775-0.19c0.168-1.325,0.428-2.679,0.791-3.994c0.648,0.079,1.323,0.125,2.025,0.125
		c1.047,0,2.038-0.097,2.955-0.267c0.429,1.243,0.765,2.562,1.009,3.934C31.635,25.316,30.284,25.458,28.878,25.458z M33.071,20.857
		c1.059-0.299,1.965-0.711,2.668-1.207c0.866,1.033,1.59,2.18,2.154,3.433c-0.988,0.703-2.301,1.292-3.823,1.707
		C33.824,23.425,33.495,22.104,33.071,20.857z M35.821,17.924c-0.337-0.343-0.691-0.668-1.059-0.981
		c0.426,0.205,0.836,0.429,1.232,0.67C35.95,17.717,35.894,17.821,35.821,17.924z M21.7,19.342c0.169,0.145,0.354,0.283,0.555,0.416
		c-0.795,1.133-1.433,2.35-1.911,3.641c-0.438-0.269-0.825-0.557-1.155-0.862C19.919,21.352,20.769,20.281,21.7,19.342z
		 M38.841,22.261c-0.575-1.207-1.28-2.34-2.132-3.368c-0.018-0.021-0.038-0.04-0.056-0.06c0.144-0.171,0.259-0.35,0.358-0.532
		c0.517,0.382,1.015,0.787,1.471,1.239c0.434,0.43,0.825,0.901,1.196,1.39C39.518,21.395,39.235,21.841,38.841,22.261z
		 M19.953,24.599c-0.429,1.513-0.66,3.114-0.66,4.8c0,0.134,0.017,0.266,0.021,0.4c-0.859-0.479-1.65-1.024-2.363-1.626
		c0.327-1.631,0.89-3.153,1.62-4.548C18.974,23.974,19.438,24.299,19.953,24.599z M20.732,31.822
		c1.342,0.551,2.785,0.968,4.291,1.237c0.316,1.897,0.838,3.719,1.561,5.435c-1.217-0.17-2.413-0.444-3.566-0.834
		C21.84,35.831,21.071,33.868,20.732,31.822z M26.293,33.25c0.901,0.109,1.818,0.171,2.748,0.171c1.461,0,2.848-0.109,4.16-0.312
		c-0.185,1.878-0.548,3.688-1.077,5.386c-0.913,0.129-1.844,0.203-2.8,0.203c-0.453,0-0.904-0.023-1.354-0.055
		C27.197,36.954,26.64,35.142,26.293,33.25z M34.442,32.884c1.803-0.38,3.437-0.96,4.875-1.728c-0.128,1.91-0.639,3.789-1.511,5.559
		c-1.377,0.698-2.827,1.21-4.344,1.538C33.949,36.548,34.28,34.746,34.442,32.884z M34.531,31.595
		c0.021-0.472,0.034-0.947,0.034-1.424c0-1.414-0.112-2.803-0.299-4.16c1.603-0.42,3.002-1.02,4.104-1.76
		c0.596,1.675,0.918,3.515,0.965,5.479C37.952,30.561,36.336,31.182,34.531,31.595z M39.358,23.469
		c0.46-0.423,0.843-0.875,1.122-1.356c0.894,1.479,1.533,3.162,1.902,5.01c-0.546,0.663-1.149,1.284-1.855,1.823
		C40.408,27.006,40.012,25.17,39.358,23.469z M15.65,28.645c-0.063,0.397-0.134,0.787-0.173,1.204
		c0.012,0.162,0.028,0.314,0.042,0.471c-0.159-0.687-0.264-1.392-0.315-2.113C15.349,28.355,15.497,28.502,15.65,28.645z
		 M22.199,38.654c0.223,0.33,0.469,0.651,0.717,0.973c-1.052-0.518-2.031-1.159-2.913-1.915
		C20.714,38.069,21.448,38.382,22.199,38.654z"/>
</g>
</svg>
