<?xml version="1.0" encoding="utf-8"?>
<!-- Generator: Adobe Illustrator 16.0.0, SVG Export Plug-In . SVG Version: 6.00 Build 0)  -->
<!DOCTYPE svg PUBLIC "-//W3C//DTD SVG 1.1//EN" "http://www.w3.org/Graphics/SVG/1.1/DTD/svg11.dtd">
<svg version="1.1" id="Layer_1" xmlns:amcharts="http://amcharts.com/ammap"
	 xmlns="http://www.w3.org/2000/svg" xmlns:xlink="http://www.w3.org/1999/xlink" x="0px" y="0px" width="612px" height="792px"
	 viewBox="0 0 612 792" enable-background="new 0 0 612 792" xml:space="preserve">
<g>
	<path id="AR" fill="#FFFFFF" d="M478.156,759.496l-3.069,1.08l-2.2-1.623l-2.035,0.345l-3.545,0.884l-3.113-12.487l1.909,2.222
		l2.694,3.758l5.159,2.316l4.998,0.272L478.156,759.496z M443.859,614.39l2.591,2.09l0.572-3.192l3.814-0.801l0.722,0.624l7.54,4.32
		l2.842-0.13l4.718,1.658l3.77,0.566l0.873,1.49l-1.869,6.4l3.595,0.172l3.863-0.362l2.475-1.245l2.297-3.582l-0.265-3.373
		l1.469-1.106l2.192,1.698l0.663,2.96l-2.278,2.74l-1.845,2.065l-2.826,4.57l-3.131,6.264l-0.064,3.268l0.106,4.202l1.007,3.892
		l-0.503,1.052l0.379,2.628l0.295,2.139l5.062,2.388l0.25,2.914l2.513,1.268l0.335,2.049l-1.846,6.135l-4.352,3.482l-6.42,2.542
		l-3.745,0.479l1.33,2.367l0.128,3.382l1.161,2.033l-1.602,2.031l-3.242,1.448l-3.587-0.803l-0.991,1.465l1.556,4.271l2.567,0.788
		l1.47-1.858l1.57,2.07l-2.701,2.153l-1.958,3.475l0.668,4.74l-0.159,2.687l-3.128,0.795l-1.999,3.057l-0.059,3.792l4.139,2.709
		l3.412,0.191l-0.036,4.689l-3.21,3.786l-0.668,6.479l-2.518,2.786l-0.753,2.773l2.442,5.215l2.983,2.555l-1.463,0.076l-3.28-0.071
		l-8.19,1.277l-2.146-2.768l-0.921-3.949l-2.127,0.881l-1.641-1.598l-1.651-5.362l1.987-2.853l0.262-3.431l-1.012-2.395l0.723-4.598
		l-0.37-6.621l-1.04-2.665l1.22-1.245l-0.791-1.66l-1.766-0.539l0.606-2.197l-1.931-1.352l-2.063-5.004l1.107-1.245l-1.891-5.224
		l-0.325-4.625l-0.062-4.026l1.603-2.029l-2.024-3.839l-0.96-3.8l1.839-3.298l-0.915-3.372l0.914-4.382l-0.898-3.654l-1.042-0.505
		l-3.2-6.343l1.06-4.457l-1.234-3.595l0.327-3.721l1.301-4.038l1.764-2.889l-1.353-1.205l0.401-1.354l-1.62-6.048l3.161-2.682
		l0.201-4.019l-0.625-0.797l1.964-3.902L443.859,614.39z"/>
	<path id="BO" fill="#FFFFFF" d="M450.841,612.497l-3.817,0.79l-0.572,3.192l-2.591-2.09l-4.552,0.218l-1.952,3.9l-2.279,1.083
		l-2.521-4.579l-2.757-3.504l0.196-3.651l-2.106-1.044l-1.062-2.395l-2.22-1.956l1.165-4.232l-2.147-2.526l0.481-1.338l-0.918-1.115
		l0.876-2.025l-0.647-2.899l-0.442-2.425l0.438-1.314l-4.22-4.695l2.54-0.332l1.682-0.508l0.493-1.189l2.556-2.08l1.425-1.685
		l4.194-1.648l0.281,2.589l0.725,1.188l0.287,2.313l4.355,2.114l3.848-0.371l1.615,0.94l2.411,0.115l1.615,0.639l2.071-0.554
		l2.177,0.524l0.63,1.926l0.898,0.829l0.415,1.465l-0.957,0.288l2.269,3.664l6.381-1.44l0.01,2.105l0.691,1.27l2.05,0.519
		l1.329,1.955l0.092,2.888l-0.53,1.749l0.817,1.917l-0.859,0.981l-0.315-1.062l-3.54-1.012l-3.088,0.705l-5.524,2.456l-0.812,3.492
		l0.39,1.91l-0.255,4.567L450.841,612.497z"/>
	<path id="BR" fill="#FFFFFF" d="M475.633,638.244l3.133-6.267l2.837-4.573l1.845-2.064l2.278-2.739l-0.663-2.96l-2.192-1.699
		l-1.469,1.107l0.126-2.265l-0.088-2.262l-0.495-1.986l-1.354-0.353l-1.096,0.889l-1.268,0.152l-0.737-1.298l-1.123-3.196
		l-0.892-0.907l-2.474-0.412l-1.176,1.032l-3.667,0.188l-0.981-4.849l-1.47-1.717l0.859-0.981l-0.817-1.917l0.53-1.749l-0.092-2.888
		l-1.329-1.954l-2.05-0.52l-0.691-1.27l-0.01-2.105l-6.38,1.44l-2.27-3.664l0.958-0.287L453,584.705l-0.898-0.83l-0.63-1.925
		l-2.177-0.524l-2.071,0.554l-1.615-0.639l-2.411-0.114l-1.615-0.941l-3.848,0.372l-4.354-2.115l-0.288-2.313l-0.724-1.188
		l-0.281-2.589l-4.194,1.648l-1.426,1.685l-2.556,2.08l-0.493,1.19l-1.682,0.507l-2.54,0.332l-1.722,1.044l-1.611-0.012
		l-1.041-5.135l-2.23,2.637l-2.938,0.647l-1.698-1.474l-2.243,0.361l0.34-1.604l-2.349-1.574l-2.13-2.644l0.725-0.82l-0.351-1.406
		l1.771-1.457l-0.776-1.702l0.55-1.366l-0.135-1.599l3.219-3.198l2.562-1.304l0.312-0.606l3.028-0.59l-0.766-9.411l-0.273-1.451
		l-0.988-1.748l-1.765-0.84l-0.583-2.39l1.73-1.01l0.747,0.179l-0.209-1.291l-2.023,0.139l-0.548-2.044l6.468-1.54l0.816-1.407
		l1.182,0.808l1.124,1.793l0.522-0.57l2.269,1.293l2.522-0.855l0.384-1.177l2.267-1.381l1.237-0.872l0.029-1.488l2.141-1.54
		l-0.36-0.638l-2.871,0.414l-0.979-1.964l-0.42-2.242l-1.688-0.482l0.537-0.459l2.563-0.188l2.842,0.173l0.763-1.02l2.245-1.111
		l3.401-2.155l0.901-1.567l-0.681-0.82l1.689-0.573l0.968,0.562l-0.074,1.563l1.259,0.213l1.151,1.344l-0.633,1.388l0.169,2.944
		l1.266,1.454l0.616,1.465l2.427,1.027l1.672-0.242l0.207-0.729l1.004-0.399l1.356-0.953l0.857-1.143l1.899-0.185l0.772-0.32
		l1.876-0.179l0.128-0.747l-0.717-0.511l0.091-1.039l1.411-0.039l1.484-0.734l2.065,0.229l1.623,0.32l0.804-1.153l0.77-0.041
		l0.693,0.817l1.525-0.63l0.95-1.567l0.411-2.688l1.209-3.501l1.096-0.437l1.27,1.618l3.292,5.301l1.908,0.104l0.66,2.244
		l-1.818,3.326l1.275,0.737l5.99-0.94l0.94,3.265l1.978-2.789l4.468,0.151l5.994,0.641l2.1,1.521l-0.09,1.957l3.598-1.979
		l6.888,0.143l4.918-1.365l5.572,1.51l5.151,2.643l2.788,0.311l2.872-0.565l1.464,0.739l2.175,3.938l1.051,1.859l0.051,5.836
		l-1.147,2.596l-3.508,5.818l-1.169,4.32l-1.716,3.538l-0.81,0.277l-0.314,2.714l1.828,6.321l0.397,5.524l0.214,2.368l-0.701,1.619
		l0.57,4.802l-2.212,5.422l0.344,3.793l-2.297,2.217l-0.248,2.331l-3.593,0.884l-4.866,2.681l-1.942,2.179l-3.446,1.978
		l-3.181,3.855l-1.899,4.314l0.199,2.861l1.064,1.907l0.311,3.913l-0.289,2.016l-1.801,2.645l-2,7.629l-2.156,3.788l-1.803,2.381
		l-0.57,4.107l-1.636,2.806l-1.479-2.017l1.002-2.221l-2.576-2.18l-3.136-1.502l-4.028-1.604l-1.204,0.411l-4.056-2.126
		L475.633,638.244z"/>
	<path id="BS" fill="#FFFFFF" d="M363.552,469.675l-0.771,0.38l-1.357-1.871l-1.502-0.741l0.146-2.484l1.027-0.105l1.908,2.724
		L363.552,469.675z M360.047,459.642l-3.47,1.492l-0.574-1.299l1.486-0.684l2.212-0.439L360.047,459.642z M362.755,458.931
		l0.084,2.751l-0.731-0.318l-0.422-1.941l-1.851-1.081l-0.117-0.423L362.755,458.931z"/>
	<path id="BZ" fill="#FFFFFF" d="M330.326,500.247l-0.15-0.502l0.36-0.267l0.707,0.264l0.66-2.386l0.614-0.204l0.139,0.506
		l0.629-0.145l0.188,0.956l-0.169,1.639l0.428,0.457l-0.033,1.326l0.279,0.269l0.055,1.83l-0.419,1.084l-0.577,0.257l-0.367,1.347
		l-0.98,0.244l-0.707-3.942L330.326,500.247z"/>
	<path id="CA" fill="#FFFFFF" d="M205.853,133.797l-1.998-6.907l4.459-0.383l2.209,0.654l5.407,4.826l0.566,6.096l-4.086,4.496
		l-3.613-3.015L205.853,133.797z M225.188,144.852l-0.049-1.857l-3.049-2.314l-6.731,1.441l1.971,4.126l6.447-0.566L225.188,144.852
		z M281.967,189.615l5.141,5.118l1.125,0.435l3.253-2.404l3.627-0.653l3.604-0.547l-1.073-3.045l-7.304-4.93l-7.902,0.614
		l-1.399,1.19L281.967,189.615z M186.19,134.809l-1.967,5.75l7.525-1.224l6.755,3.888l5.853,0.424l-2.961-6.391l-4.511-7.322
		l-10.531-4.088l-7.1-0.79l1.913,6.664L186.19,134.809z M213.775,115.08l6.026-1.653l-1.444,5.38l1.514,6.274l5.252,5.919
		l7.386,0.379l5.569-2.631l2.96-14.204l3.238-6.391l-5.458-4.876l-5.748-11.932l-6.375-2.415l-6.662-2.957l-7.045-10.241
		l-7.426,3.032l2.676,4.541l-3.023,2.322l-0.725,6.858l-0.094,9.386l4.242,8.053L213.775,115.08z M154.178,196.929l5.206,1.149
		l14.586-5.268l-5.471,7.351l1.436,3.947l4.963-1.538l7.004-7.494l10.732-4.772l0.482-6.671l-2.219-6.438l-3.621,0.275l-2.385,3.018
		l-2.517-4.556l-2.802-6.455l-3.844-0.823l-1.737,5.968l7.994,11.874l-6.041,0.439l-7.884-6.555l-10.5-2.402l-2.141,4.701
		L154.178,196.929z M168.442,140.589l-5.166-2.351l-1.967-0.338l-2.142,5.906l0.53,2.378l5.509-1.361L168.442,140.589z
		 M170.355,155.611l-0.077-4.988l-5.292-1.341l-4.423,2.846l-1.426,5.703l6.154,3.749L170.355,155.611z M214.517,186.314
		l5.132-2.673l-0.917-10.125l-1.858-7.004l-4.167-5.939l0.211,1.956l-4.86,0.333l-3.782,6.076l-3.677,0.452l2.84,10.487l5.179-2.384
		l1.835,7.662L214.517,186.314z M224.079,241.171l-7.137-3.153l-6.805-3.586l-2.849-7.045l-4.707-10.021l-4.842-3.612l-3.752-1.009
		l-2.5,2.405l5.176,10.745l-0.567,4.822l-5.352-9.936l-3.942-2.919l-2.328,6.617l-6.01-4.476l-6.527,5.229l0.341-5.682l-3.942-1.364
		l-7.153,9.112l-1.212,4.958l-0.782,8.691l6.472,1.298l5.081-1.417l-6.661,6.003l2.671,3.263l4.751-0.972l6.881-2.555l6.981,0.719
		l-3.9,2.78l-4.776,0.726l-4.7,2.941l-1.954,1.579l5.947,6.486l2.683-1.772l5.159,1.412l2.872,3.866l5.681-2.333l8.047-3.461
		l5.435-4.681l3.71-1.527l6.32,1.085l6.349-0.051l0.268-3.657l-3.014-3.076l5.247-2.111L224.079,241.171z M232.935,237.732
		l-1.273,4.759l-2.184,3.669l5.567,3.055l2.444-1.676l5.162,1.675l1.252-3.738l-2.914-3.076l-1.443-1.56l-2.415-1.23
		L232.935,237.732z M203.453,208.124l-3.157-1.937l-4.325,1.581l-0.716,1.91l7.151,6.688L203.453,208.124z M241.229,215.233
		l1.516-9.075l3.402-3.169l2.375-11.561l-7.059-1.338l-7.007,1.295l-2.469,4.092l-0.492,5.43l1.374,5.707l4.48,9.161
		L241.229,215.233z M254.718,183.006l6.752-1.91l9.026-4.27l4.618,0.455l4.273-3.901l1.231-3.871l-2.076-5.154l-4.791-4.114
		l-5.624,0.398l-6.461,2.829l-4.55,4.196l-5.109,0.094l-4.613,0.522l-2.898-2.666l-4.572-2.135l-0.549-5.422l-4.032-3.99
		l-6.513,1.663l-4.85-3.798l-7.066,0.757l0.25,6.338l4.942,3.461l7.279,0.005l4.82,5.186l2.051,6.516l2.912,6.792l9.81,1.847
		L254.718,183.006z M144.156,187.644l4.668-7.501l2.921-1.468l1.306-5.634l-2.43-11.654l-3.986,3.391l-5.134,1.053l-4.392,11.375
		l-2.979,12.012l5.229,1.846L144.156,187.644z M234.202,185.485l0.588-5.342l-2.225-3.787l-4.049-3.91l-3.873,4.755l-0.311,6.252
		l4.838,2.295L234.202,185.485z M227.754,201.451l-1.711-3.188l-5.536,2.962l-4.568-1.509l-2.509,6.649l5.501,6.51l-7.103,0.302
		l0.816,3.575l10.312,6.275l3.288,3.423l3.405,0.066l4.43-5.383l-1.829-9.848l-6.208-3.56L227.754,201.451z M185.624,404.894
		l-2.061-2.424l-3.829-1.267l-2.247-2.014l-1.565-1.492l-3.255,0.234l-2.229-0.285l-3.757-0.268l0.017,1.275l1.977,2.494l3.645,0.07
		l0.954,1.306l3.407,1.034l1.438,1.535l6,0.914L185.624,404.894z M306.545,277.321l-2.985-1.903l-2.287,1.197l-1.197-3.542
		l-4.394-1.464l-4.296-1.778l-2.441-1.587l-1.387,1.638l-1.486-3.344l-2.56-0.051l0.671,7.525l1.08,6.143l-1.957,4.429l4.312-1.828
		l2.21,4.029l3.762-4.991l2.29-4.813l2.697,2.916l5.596,0.5L306.545,277.321z M148.656,250.738l7.487-7.113l-1.14-4.572l2.223-8.6
		l6.158-9.93l3.431-3.956l-4.793-4.075l-4.083-2.684l-8.627,1.436l-5.362-1.373l-10.721,4.719l5.073,6.553l-0.977,8.312
		l-0.268,8.689l-0.28,4.914l9.025,3.635L148.656,250.738z M315.308,243.46l0.081-1.287l-0.969-3.736l-3.201-1.813l-2.727,1.998
		l-0.177,5.277l1.875,4l3.604-1.351L315.308,243.46z M345.673,245.353l7.154,6.499l4.916,2.352l3.494-10.748l-0.423-6.081
		l-5.35,0.744l-6.735-6.729l-5.739-0.626l-9.264-3.927l5.017-5.807l-5.354-8.127l-3.87-3.24l-8.985-1.964l-5.085-5.697l-5.569,3.886
		l-1.562-4.454l-5.833-3.967l-8.736-3.732l-2.039,5.164l-5.774,4.778l-1.289-7.284l-8.644-10.457l-7.204,6.892l-0.792,9.86
		l-4.355-6.344l0.557-8.132l-7.773,5.264l-2.228,5.562l-0.06,10.582l3.718,10.431l4.714-1.125l-2.308,5.494l3.625,2.811l5.744,0.137
		l7.719,1.112l12.587-0.854l5.696-2.726l1.059-3.301l3.433,2.646l3.054-0.185l4.972,4.986l-1.543,2.869l7.486,1.435l6.152,3.084
		l2.027,2.694l1.863,3.603l-2.248,9.256l-0.145,4.354l1.824,2.582l-6.564,2.715l-6.19,1.694l-0.751,6.299l3.457,1.936l9.279-3.606
		l-0.604-2.222l5.748,2.52l5.906,2.645l-0.637,2.379l4.905,2.566l8.153,2.397l9.684,0.584l-1.159-2.333l-4.531-3.476l-6.261-5.178
		l9.779,3.836l4.672,0.918l-0.161-5.533l-4.007-6.907l-1.88-1.703l-5.396-2.458l-4.636-3.75l-0.748-4.759L345.673,245.353z
		 M220.3,73.859l4.912,7.924l7.593,5.486l11.269-4.178l8.036,0.469l-3.392,8.438l-3.135-1.452l-9.26,1.418l3.854,9.467l6.458,5.97
		l0.586,6.379l-4.853,5.552l-1.071,7.132l6.157,1.79l7.031,8.977l-10.54-4.524l-1.743,1.615l4.393,10.675l-5.287,4.87l2.136,6.81
		l6.448-0.817l5.351,0.473l9.194-4.601l9.623,1.705l6.732-10.702l-0.96-3.55l-5.519,1.978l-1.297-3.241l3.502-5.68l0.054-6.476
		l3.988-5.801l1.74-6.408l-4.832-7.705l1.512-3.703l-5.118-1.097l9.552-4.427l1.187-4.249l6.063-4.775l1.703-17.329l3.944-7.183
		l4.546-15.089l-7.179,1.916l1.734-5.829l6.834-6.71l5.461-12.53l-1.546-6.806l-7.842-5.625l-7.976-1.688l-9.385,0.056l-7.611,0.028
		l-7.614,0.016l-8.399,7.088l-2.504-2.551l-9.839,3.683l-5.185,4.519l-3.296,5.402l0.941,14.499l-5.386-6.199l-4.446-0.321
		l-2.521,10.63l-5.511,5.578l-3.669,1.743l-3.795,5.767l2.679,7.677L220.3,73.859z M386.271,365.043l-1.74-2.051l-0.882,1.801
		l1.228,1.4l4.71,0.973l1.153-0.613l1.142-2.367l-3.04,0.896L386.271,365.043z M295.987,289.842l1.2,1.746l2.381-0.417l2.891-4.913
		l-0.28-1.425l-4.566,1.064L295.987,289.842z M388.967,350.04l-3.921-1.282l-4.681-0.201l-1.036,0.723l3.684,1.641l4.685,0.514
		l1.583-0.495L388.967,350.04z M419.774,348.369l-1.085-2.54l-2.104,1.427l0.11-3.931L413,342.591l-1.214,1.622l-3.289-0.661
		l0.712-2.072l-2.494-0.546l-1.729,2.277l1.071-5.062l0.948-3.75l0.278-1.601l-1.596,0.147l-2.413,2.546l-1.312,3.502l-1.388,9.03
		l-2.022,3.717l1.777,0.987l-1.635,2.252l0.87,1.327l6.467-1.449l3.482-1.182l3.474,0.401l-1.77,2.862l2.014-0.326l2.786-5.187
		l1.078,0.396l0.271,4.162l2.4,0.367l1.457-0.552l0.331-4.612L419.774,348.369z M396.14,360.236l-1.977,6.215l-5.3,2.05
		l-4.893-1.302l-1.991-3.356l-2.364-5.008l2.297-4.124l-3.547-1.739l-4.824,1.743l-5.906,5.902l-3.711,7.765l-2.616,1.492
		l2.699-5.441l3.132-7.771l3.657-3.296l1.861-4.367l3.336-1.208l4.984-1.205l7.361-0.681l5.391-2.234l3.104-5.317l4.991-3.24
		l1.908-2.458l1.907-2.622l-1.766-6.072l-1.856-1.759l-2.762-0.102l-2.504-4.458l-2.584-1.301l-5.651-0.173l-3.809-2.59l-5.24-2.245
		l0.393-4.113l-5.506-6.483l-6.343-7.066l-4.042-5.241l-1.429,3.632l-1.385,7.938l-3.921,4.705l-3.331-3.135l-3.274-0.25
		l-3.158-7.984l-1.318-5.695l-6.037,0.953l-1.673-2.432l-5.091-3.048l-3.684-1.641l-2.275,2.55l-3.575,0.163l-6.169-0.532
		l-1.891,2.229l3.816,10.569l2.948,5.69l-2.216,7.768l5.211,3.747l3.554,4.685l1.278,3.974l-0.801,4.592l-2.737,5.024l-4.634,4.017
		l3.085,2.406l3.905,8.313l-0.418,5.977l-2.122,2.361l-6.188-3.829l-3.921-5.51l-2.431-5.367l-0.691-5.087l-3.742,0.344
		l-5.553,1.033l-4.123-1.583l-4.55-0.584l-3.077-2.22l-3.878-1.467l-6.813-1.101l-4.332,2.36l-2.71-4.282l-2.959-5.524l-5.133,0.15
		l-1.711-7.619l-0.032-5.613l1.647-8.693l2.609-6.8l3.625-1.871l-0.969-4.841l1.822-3.818l4.614-1.677l2.547-6.145l0.115-3.668
		l1.502-7.566l-0.04-4.382l4.047,1.639l4.29-2.425l5.025-7.478l-0.618-4.288l-3.512-4.12l1.274-5.412l-1.341-4.523l-5.605-3.56
		l-5.243-0.186l-4.885,0.439l2.389,10.335l-0.478,8.352l-1.9,7.125l-4.66-5.051l-0.661-6.875l-5.437-4.945l-2.636,8.3l-2.342-9.443
		l-6.636-0.391l1.76-5.472l-7.327-10.208l-4.507-3.783l-4.796-0.611l-2.028,8.576l2.491,11.1l4.833,2.923l4.991,4.918l0.771,9.484
		l-2.729,0.429l-0.371,7.472l-2.039-8.276l-5.887-1.771l-2.551,2.306l1.754,5.424l-4.885,0.992l-4.795,2.664l-6.835-2.5
		l-3.522,1.631l-4.542-4.024l-3.212-1.509l-2.42,1.57l-3.926,1.419l-1.369,3.616l4.318,2.926l-2.508,5.294l-4.835-4.341l-2.441,2.24
		l-8.688,3.258l-6.459-0.384l3.554-5.58l-5.616-3.494l-3.103,1.401l-4.949-0.422l-8.602-1.482l-6.062-2.718l-4.156,0.447
		l-0.557,3.101l-3.679,2.561l-2.26-7.154l-2.787,7.596l-7.757-7.252l-2.554-0.48l0.408,4.805l-1.91,2.86l-3.279-3.436l-4.819,3.774
		l-3.917,5.432l-5.216,0.07l-3.281,3.956l-1.94,4.601l-3.663,0.009l-6.33-3.19l-6.75-0.751l8.122,32.675l10.426,41.864l3.311-0.612
		l3.685,1.039l3.035,2.306l4.002,3.519l2.327-4.408l2.793-2.943l2.6,2.929l2.889,2.078l3.75,2.103l3.185,3.962l5.122,6.103
		l6.579,2.375l1.014,3.663l-1.151,3.237l0.801,2.913l5.022,3.077l1.687,4.299l4.819,1.258l0.35,3.414l3.009,4.219l6.538,0.653
		l2.92,1.645l7.662,3.398l0.451-0.1l9.405-2.345l9.83-2.451l3.26-0.812l10.103-2.519l9.771-2.436l9.937-2.478l9.948-2.48
		l11.26-2.808l11.33-2.825l6.852-1.708l-0.471-1.942l1.117-0.303l1.283,2.628l1.239,0.594l2.392-0.27l3.577-0.05l3.596,0.734
		l2.521-1.318l4.397,0.271l0.858-2.297l1.684-1.248l0.429-1.4l0.582-0.835l3.337,0.247l2.312-0.451l0.959,0.478l1.812,2.535
		l3.906-0.184l-0.23,1.539l1.668,1.103l-0.107,1.984l1.544,0.255l-0.294,1.792l0.926-0.067l0.449-0.865l0.915,0.902l2.628-0.027
		l2.529-0.582l2.803-0.184l3.195,0.182l1.445,1.221l3.046,3.056l-0.681,1.801l-2.852,0.033l-2.397-2.463l1.159,2.835l-0.943,2.958
		l0.719,2.13l0.043,1.332l-1.765,2.034l-0.943,2.857l-0.344,1.742l1.89-0.17l2.104-2.033l1.142-1.613l0.931-0.445l1.932-0.005
		l0.712-0.917l1.478-0.972l2.744-1.273l0,0l0,0L339.337,393l-0.141,0.083l-0.959,0.492l-1.428-0.097l0.603-1.806l0.869-0.794
		l2.174-1.246l2.644-1.324l1.681,0.497l0.671-1.235l0.893-0.901l0.795,0.167l0.052,0.062l2.588-4.071l1.286-1.235l5.022-1.292
		l6.109-1.523l0.042-1.239l1.005-0.502l1.225-1.082l0.646-2.445l0.086-3.975l1.616-4.292l1.418,1.002l2.016-1.381l1.827,1.038
		l1.626,6.522l2.826,2.119l3.543-1.486l5.268-1.476l-4.794,5.286l1.1,3.854l2.599-0.296l2.877-4.218l2.818-2.686l6.646-4.605
		l3.329-4.118l-2.569-1.192L396.14,360.236z M311.795,292.039l0.381-4.011l-1.201-1.244l-1.396,0.186l-0.745,2.445l-0.032,0.523
		l1.396,1.873L311.795,292.039z M153.972,377.106L153.972,377.106l1.15-3.235L153.972,377.106z M150.924,381.995l-3.065,1.241
		l-1.743-0.343l0.247,1.846l1.224,2.293l2.108,1.307l1.857,2.21l2.616,1.983l1.326-0.318l-3.973-3.652L150.924,381.995z"/>
	<path id="CL" fill="#FFFFFF" d="M464.181,747.694l3.114,12.488l3.545-0.884l2.035-0.345l-0.517,2.614l-2.384,2.516l-1.679,0.217
		l-2.078,0.017l-2.847-1.148l-3.683,0.028l-4.969-2.162l-4.136-2.195l-6.107-5.066l3.015,0.467l5.578,2.536l4.896,0.915l1.074-2.991
		l0.131-4.051l2.486-3.018L464.181,747.694z M432.556,615.012l2.521,4.58l2.267-1.079l0.627,0.798l-0.204,4.018l-3.159,2.682
		l1.62,6.047l-0.402,1.356l1.354,1.204l-1.765,2.888l-1.302,4.039l-0.327,3.722l1.234,3.594l-1.06,4.457l3.2,6.342l1.041,0.506
		l0.899,3.654l-0.916,4.383l0.917,3.371l-1.84,3.295l0.961,3.803l2.024,3.839l-1.603,2.029l0.062,4.027l0.326,4.624l1.892,5.225
		l-1.107,1.243l2.063,5.005l1.931,1.353l-0.606,2.194l1.765,0.54l0.792,1.661l-1.222,1.245l1.042,2.664l0.371,6.623l-0.725,4.596
		l1.011,2.396l-0.262,3.429l-1.987,2.855l1.652,5.362l1.641,1.597l2.126-0.881l0.922,3.949l2.146,2.767l8.189-1.277l3.282,0.072
		l-2.951,0.698l-1.263,1.734l-2.498,2.718l0.758,5.307l-1.371,0.481l-4.188-0.889l-4.751-2.895l0,0l-4.898-2.08l-1.884-3.132
		l0.162-3.326l-2.533-3.059l-2.587-8.567l0.22-5.111l2.557-4.641l-5.385-0.151l2.103-5.006l-0.81-8.028l4.09,0.698l-0.624-9.845
		l-2.516-0.629l0.361,5.871l-2.251-0.118l-0.558-6.662l-0.881-8.365l0.795-3.31l-1.989-3.898l-1.444-4.635l1.364-0.477l0.382-7.124
		l0.692-6.985l-0.06-6.224l-2.215-5.609l0.207-3.403l-1.568-4.577l0.798-5.057l-1.177-7.286l-0.812-7.793l-0.95-8.234l-1.682-5.691
		l-1.908-4.733l1.479-1.311l0.445-1.992l2.204,1.948l1.062,2.395l2.104,1.043l-0.193,3.651L432.556,615.012z"/>
	<path id="CO" fill="#FFFFFF" d="M390.923,548.953l-1.611-0.428l-1.902-0.68l-0.816,0.755l-2.925,0.241l-1.158-1.219l-0.6,0.213
		l-3.789-1.051l-0.706-0.917l1.179-0.557l-0.551-1.607l0.472-1.384l1.585-0.633l0.891-2.418l0.834-2.042l-1.427-0.483l0.149-2.07
		l-1.499-2.839l0.492-1.041l-1.216-2.67l-1.79-1.436l0.024-1.715l1.134-0.03l0.38-1.147l-1.255-1.76l0.278-0.597l1.728-0.317
		l1.912-2.95l1.271-0.689l-0.238-1.109l-0.09-2.979l1.514-2.032l2.065-0.58l0.086-0.762l2.667-0.375l2.19-2.341l1.099-1.078
		l1.191-2.015l1.232-0.095l1.083,0.671l-0.354,1.293l-1.985,1.098l-0.419,1.887l-1.05,1.279l-0.645,1.491l0.179,2.478l-0.422,2.188
		l1.755-0.212l0.808,1.429l0.915,0.552l0.593,1.268l-0.082,1.328l0.292,0.668l0.883,0.068l1.081,0.961l4.172-1.382l2.032-0.053
		l3.05,2.265l1.246-0.688l2.432-0.417l1.796-0.851l1.313,0.288l-0.159,1.923l-0.458,1.293l0.333,2.439l1.206,2.021l1.19,0.744
		l0.293,0.721l-1.268,2.06l1.383,0.421l1.175,0.937l1.821,3.022l-0.523,0.569l-1.124-1.791l-1.181-0.809l-0.817,1.407l-6.468,1.539
		l0.548,2.044l2.023-0.139l0.209,1.291l-0.747-0.179l-1.73,1.011l0.583,2.39l1.765,0.839l0.989,1.748l0.273,1.453l0.765,9.41
		l-2.094-1.35l-1.01,0.178l1.304-3.889l-2.928-0.916l-1.915,0.778l-1.333-0.271l-1.613,1.331l-2.574,0.203l-2.81-2.965l-1.748-0.468
		l-1.439-1.295l-2.586-1.012L390.923,548.953z"/>
	<path id="CR" fill="#FFFFFF" d="M358.873,527.564l-1.982-0.298l-0.847-0.529l0.233-0.672l-0.302-0.703l-1.122-0.574l-1.461-0.326
		l-1.252-0.14l-0.457-0.928l-1.024-0.384l0.457,0.929l-0.465,0.955l-0.985-0.732l-1.146-0.066l-0.615-0.561l-0.23-1.022l0.172-1.174
		l-1.051-0.24l0.599-0.824l0.387-0.56l2.406,0.341l0.647-0.627l1.122,0.022l0.726,0.546l1.025-0.019l0.615-0.904l1.305,1.606
		l1.611,1.029l1.917,1.043l-1.215,0.615l0.356,1.328l0.809,0.326l-0.396,0.525l0.28,0.569l-0.104,0.741L358.873,527.564z"/>
	<path id="CU" fill="#FFFFFF" d="M348.375,475.643l2.935-0.457l2.608-0.61l3.411,0.441l1.649,0.981l2.995-1.173l1.377,0.536
		l3.362,1.508l2.453,1.081l1.075-0.316l2.165,0.224l-0.002,1.056l2.482-0.468l2.863,0.814l-0.187,0.912l-2.097,1.001l-2.189,0.734
		l-2.352,0.285l-4.652,1.523l1.733-2.516l-1.575-0.572l-2.197,0.297l-1.398-0.729l-1.293-1.813l-1.835,0.596l-3.33-0.172
		l-1.178-0.497l-4.451,0.521l-1.331-0.408l1.02-1.195l-3.294,0.632l-1.916,2.434l-1.37,0.394l-0.255,0.992l-1.533,0.795
		l-1.504,0.011l1.475-1.534l0.389-1.465l1.302-1.165l1.516-1.118l2.432-0.972L348.375,475.643z"/>
	<path id="DO" fill="#FFFFFF" d="M386.413,479.221l0.263-0.706l2.595-0.619l2.185,0.408l0.851-0.312l0.91,1.087l1.791-0.52
		l0.151,1.065l1.51-0.238l1.95,0.868l-0.875,1.726l-1.773-0.362l-1.477,0.521l-1.128,0.105l-0.444,0.787l-1.222,0.533l-0.71-0.729
		l-0.972,0.781l-0.733,2.693l-0.987-0.331l-0.425-0.949l-0.165-0.963l-1.109-0.827l0.656-0.791l-0.072-1.399L386.413,479.221z"/>
	<path id="EC" fill="#FFFFFF" d="M377.264,563.729l1.147-2.896l-1.08-1.262l-0.88,1.851l-2.348-0.958l0.442-1.088l-1.301-2.853
		l1.034-0.785l0.105-2.197l0.722-2.437l-0.569-1.277l1.643-1.162l1.941-1.877l3.79,1.051l0.599-0.213l1.158,1.219l2.926-0.241
		l0.815-0.755l1.903,0.68l1.611,0.428l1.082,2.377l-0.494,2.395l-2.756,4.352l-3.659,2.292l-1.315,3.378l-0.073,2.379l-1.54,1.828
		l-1.798-1.322l-1.437-0.02l-1.305,0.603l-0.384-1.184l0.752-1.017L377.264,563.729z"/>
	<path id="FK" fill="#FFFFFF" d="M487.756,737.301l3.179-4.168l3.153,0.618l1.457-2.61l3.24,1.716l-0.526,2.114l-4.078,2.723
		l-1.956-1.508l-2.21,3.122L487.756,737.301z"/>
	<path id="GF" fill="#FFFFFF" d="M464.324,521.364l-0.951,1.567l-1.524,0.631l-0.68-0.809l-0.78,0.043l-0.804,1.157l-1.609-0.314
		l0.487-1.617l-0.09-1.57l0.213-1.558l-1.773-1.63l-0.822-2.192l1.015-3.278l1.214,0.088l2.628,0.173l4.204,1.913l0.881,1.212
		l-1.21,3.501L464.324,521.364z"/>
	<path id="GT" fill="#FFFFFF" d="M330.645,514.962l-1.849-0.167l-2.082,0.457l-1.681-0.296l-2.131-0.95l-0.165-1.012l0.177-0.899
		l-0.619-0.521l0.9-3.186l4.238-1.072l-0.193-1.179l-0.597-0.077l-0.552-0.653l-1.426-0.486l-1.519-0.852l1.5-0.374l-0.486-1.949
		l3.095-0.772l3.07-0.726l0.656,2.732l0.707,3.942l0.98-0.244l1.243,0.355l0.154-0.59l1.078,0.193l-1.175,1.688l-1.333,1.347
		l-0.073,0.71l0.425,0.597l-0.467,1.046l-0.73,0.396l0.276,0.356l-0.52,0.532l-0.922,1.132L330.645,514.962z"/>
	<path id="GY" fill="#FFFFFF" d="M435.637,507.923l2.478,0.677l2.596,1.65l0.508,1.691l1.273-0.229l2.174,1.165l1.599,0.831
		l0.212,3.108l-1.793,1.365l0.368,0.725l-0.188,1.865l2.071,2.018l1.054-0.25l0.9,1.746l2.733,2.354l-0.772,0.32l-1.899,0.186
		l-0.857,1.143l-1.356,0.953l-1.005,0.4l-0.207,0.728l-1.671,0.243l-2.427-1.028l-0.616-1.463l-1.267-1.455l-0.169-2.945
		l0.634-1.388l-1.151-1.343l-1.258-0.213l0.073-1.563l-0.969-0.562l-1.688,0.573l-2.859-1.949l0.672-1.135l-0.451-1.518l1.909-1.042
		l0.662-0.817l-1.441-0.947l-0.007-1.291L435.637,507.923z"/>
	<path id="HN" fill="#FFFFFF" d="M340.482,515.208l-0.83-0.911l-1.09-0.041l-0.102-1.416l-0.54-0.256l-0.745-0.065l-1.353,0.767
		l-0.233-0.434l-1.141-0.294l-0.876-0.497l-1.05-0.037l0.467-1.046l-0.426-0.598l0.074-0.709l1.334-1.348l1.173-1.688l0.378,0.057
		l0.583-0.785l0.933-0.284l0.376,0.196l0.478-0.296l1.612-0.077l1.513-0.478l0.97-0.642l0.296-0.477l1.095-0.083l0.852,0.038
		l0.841-0.299l0.588-0.46l1.631,0.096l0.55-0.062l1.163,0.385l1.147,0.53l1.335,0.219l1.11,0.729l-1.152,0.211l-0.346,0.576
		l-1.034,0.734l-0.839,0.209l-0.622,0.621l-0.701,0.01l-0.695-0.377l-0.319,0.18l-0.223,0.921l-0.329,0.047l0.117,0.724
		l-0.925,1.222l-0.502,0.554l-0.238,0.51l-1.151-0.44l-0.484,1.075l-0.702,0.15l-0.76,0.278l0.486,1.648l-0.479,0.144l-0.219,0.884
		L340.482,515.208z"/>
	<path id="HT" fill="#FFFFFF" d="M381.346,479.731l2.059-0.35l3.009-0.161l0.771,1.83l0.072,1.398l-0.656,0.791l1.109,0.827
		l0.165,0.964l-2.345-0.044l-1.5,0.627l-2.083,0.255l-1.385,1.036l-2.056-0.642l0.016-1.195l3.169-0.278l2.576-0.34l0.998-1.078
		l-1.887-1.123l-0.31-1.339l-2.228-0.024L381.346,479.731z"/>
	<path id="JM" fill="#FFFFFF" d="M368.076,488.324l2.31-0.25l1.97,0.398l0.779,0.81l-2.312,0.642l-0.86,0.826l-1.992-0.091
		l-2.206-0.794l0.192-0.889l1.337-0.581L368.076,488.324z"/>
	<path id="MX" fill="#FFFFFF" d="M296.696,478.212l-0.491,3.522l0.073,2.755l0.954,4.883l0.114,1.817l1.062,1.791l1.46,1.48
		l1.343,2.564l2.849,2.062l1.266,1.806l1.726,1.391l3.754,0.055l1.73,1.101l2.666-1.694l2.431-0.969l2.325-1.247l1.941-1.123
		l1.749-1.941l0.282-2.24l-0.462-3.011l0.322-1.172l2-1.492l3.308-1.688l2.959-0.613l1.934-0.796l0.978,0.548l0.318,1.728
		l-1.262,2.534l-0.247,2.335l0.753,0.451l-0.119,1.636l-0.151,2.912l-1.061-0.677l-0.682,0.232l-0.614,0.205l-0.661,2.386
		l-0.706-0.264l-0.36,0.266l0.15,0.502l-3.07,0.727l-3.095,0.771l0.485,1.95l-1.5,0.374l1.519,0.852l1.426,0.485l0.553,0.653
		l0.597,0.077l0.193,1.18l-4.239,1.072l-0.899,3.185l0.619,0.522l-0.177,0.899l0.165,1.012l-4.662-2.742l-1.99-0.683l-2.93-0.223
		l-1.783,0.706l-2.347,1.956l-1.581,0.756l-2.563-0.313l-2.646-0.044l-3.487-0.8l-2.602,0.134l-4.156-0.658l-3.177-0.966
		l-1.068-0.711l-1.905,0.262l-3.665-0.254l-1.777-1.237l-4.048-1.087l-2.206-1.798l-1.219-1.516l1.013-0.616l-0.593-0.918
		l0.542-1.102l-0.295-1.233l-1.505-1.306l-0.661-1.34l-1.559-1.519l-3.808-2.843l-4.036-1.992l-2.169-1.855l-3.219-0.778
		l-0.826-0.749l-0.059-2.396l-1.904-0.441l-2.409-1.308l-1.473-2.381l-1.86,0.138l-2.403-1.483l-2.016-1.443l-0.437-1.146
		l-2.496-2.415l-1.901-2.638l-0.321-1.489l-2.778-0.927l-1.058,0.441l-2.155-0.594l-0.14,1.704l1.003,1.708l1.035,2.791l1.538,1.286
		l3.109,1.997l0.764,0.751l0.574,0.134l0.749,1.192l0.575-0.205l1.274,2.241l1.24,0.695l1.023,1.139l2.563,1.368l1.95,3.142
		l1.379,1.352l1.346,1.472l0.655,1.87l1.625-0.28l1.745,1.31l1.605,1.305l0.077,0.66l-1.068,1.658l-0.594,0.137l-1.419-1.969
		l-2.672-1.503l-2.822-1.155l-1.931-0.496l-0.557-2.686l-0.99-1.861l-1.867-0.739l-2.69-1.074l-0.318,0.581l-1.07-0.763
		l-2.264-0.377l-2.489-1.676l0.166-0.343l1.412-0.124l0.88-1.702l-0.291-1.723l-3.22-2.046l-2.201-0.567l-1.82-2.07l-1.854-2.196
		l-2.305-2.702l-2.22-3.16l3.695-1.235l4.101-1.473l-0.119,0.83l5.472,0.657l8.242,0.844l6.583-1.68l2.623-0.654l-0.397-1.595
		l5.742-1.432l1.55,1.082l2.004,0.793l2.382,1.2l1.597,1.724l1.347,1.874l1.999,0.719l3.036,0.448l1.335-3.508l2.7-0.749
		l2.705,0.933l2.307,2.16l1.695,1.912l2.479,1.639l1.378,2.407l1.366,1.502l2.859,0.493l2.551,0.218L296.696,478.212z"/>
	<path id="NI" fill="#FFFFFF" d="M347.393,520.274l-1.413-0.778l-1.886-0.972l-1.016-0.95l-1.656-0.706l-2.046-1.106l0.236-0.612
		l0.683,0.371l0.187-0.312l0.995-0.385l0.219-0.884l0.479-0.144l-0.486-1.648l0.76-0.278l0.702-0.15l0.483-1.075l1.152,0.44
		l0.237-0.51l0.502-0.554l0.926-1.222l-0.118-0.723l0.328-0.045l0.223-0.921l0.319-0.181l0.696,0.378l0.699-0.01l0.623-0.622
		l0.839-0.209l1.034-0.733l0.347-0.577l1.151-0.21l-0.2,0.4l0.023,0.798l0.639,1.156l-0.467,1.347l-0.016,1.447l0.256,1.53
		l0.404,0.815l0.462,1.502l-0.424,0.46l0.051,1.515l0.445,0.83l-0.469,1.034l0.389,0.857l0.635,0.433l-0.615,0.904l-1.024,0.019
		l-0.726-0.546l-1.123-0.022l-0.646,0.627l-2.407-0.341L347.393,520.274z"/>
	<path id="PA" fill="#FFFFFF" d="M376.537,526.688l-1.337-0.684l-1.156-1.619l0.595-1.09l-0.895-0.013l-0.89-0.949l-1.883-0.508
		l-1.4,0.576l-0.373,1.321l-1.142,1.164l-0.69,0.3l-0.146,0.775l2.019,1.404l-0.792,0.649l-0.36,0.617l-1.495,0.549l-1.073-1.841
		l-0.285,0.672l-1.145,0.088l-0.997-1.184l-1.412,0.127l-0.959-0.175l-1.418,0.354l0.073,0.746l-0.502-0.402l0.012-0.707
		l0.104-0.741l-0.28-0.569l0.396-0.525l-0.809-0.326l-0.355-1.328l1.214-0.615l1.479,0.897l0.106,0.726l1.358-0.189l0.252-0.35
		l1.116,0.601l1.568-0.654l1.196-1.189l1.841-1.175l0.888-1.274l1.878-0.269l-0.047,0.364l1.884-0.343l1.62,0.209l1.323,0.726
		l1.481,0.607l-0.278,0.597l1.255,1.76l-0.38,1.147l-1.134,0.03L376.537,526.688z"/>
	<path id="PE" fill="#FFFFFF" d="M424.607,602.462l-0.441,2.004l-1.482,1.298l-3.816-1.156l-0.649-1.346l-7.418-1.814l-6.877-2.264
		l-3.088-1.463l-2.069-2.461l0.301-1.113l-3.905-3.732l-4.816-5.375l-4.775-5.864l-1.738-1.184l-1.646-2.177l-3.118-1.531
		l-2.696-0.746l0.707-1.745l-2.394-2.754l0.454-2.559l2.125-2.751l0.735,1.285l-0.753,1.016l0.384,1.184l1.306-0.602l1.436,0.019
		l1.799,1.322l1.539-1.828l0.074-2.378l1.315-3.378l3.658-2.292l2.756-4.352l0.495-2.396l-1.083-2.377l0.808-0.539l2.586,1.012
		l1.44,1.296l1.748,0.468l2.811,2.964l2.572-0.203l1.613-1.33l1.335,0.271l1.914-0.778l2.927,0.915l-1.302,3.888l1.009-0.176
		l2.093,1.349l-3.028,0.59l-0.312,0.606l-2.562,1.304l-3.217,3.197l0.134,1.6l-0.549,1.366l0.775,1.702l-1.771,1.457l0.351,1.406
		l-0.725,0.819l2.13,2.644l2.348,1.574l-0.34,1.605l2.244-0.362l1.698,1.474l2.939-0.646l2.229-2.639l1.042,5.136l1.61,0.012
		l1.723-1.045l4.219,4.696l-0.437,1.314l0.442,2.424l0.648,2.9l-0.877,2.025l0.918,1.115l-0.481,1.338l2.147,2.526L424.607,602.462z
		"/>
	<path id="PR" fill="#FFFFFF" d="M405.451,478.918l1.766-0.114l0.774,0.534l-0.634,1.087l-2.498,0.599l-1.909,0.601l-0.557-1.428
		l0.336-0.623L405.451,478.918z"/>
	<path id="PY" fill="#FFFFFF" d="M451.562,613.122l0.255-4.567l-0.39-1.911l0.812-3.491l5.524-2.457l3.087-0.705l3.541,1.012
		l0.315,1.062l1.47,1.717l0.98,4.849l3.668-0.187L472,607.41l2.474,0.412l0.892,0.907l1.123,3.196l0.737,1.298l1.268-0.151
		l1.096-0.89l1.354,0.353l0.495,1.986l0.088,2.262l-0.125,2.265l0.267,3.385l-2.296,3.585l-2.474,1.244l-3.865,0.361l-3.581-0.174
		l1.867-6.402l-0.888-1.497l-3.757-0.57l-4.719-1.659l-2.843,0.132L451.562,613.122z"/>
	<path id="SR" fill="#FFFFFF" d="M446.264,513.707l4.137-0.327l0.202-0.693l2.625-0.903l3.78,0.01l-1.018,3.268l0.823,2.191
		l1.801,1.634l-0.226,1.562l0.077,1.573l-0.505,1.597l-2.064-0.228l-1.485,0.734l-1.41,0.038l-0.092,1.04l0.717,0.511l-0.128,0.746
		l-1.876,0.179l-2.732-2.355l-0.9-1.746l-1.054,0.251l-2.071-2.018l0.187-1.866l-0.367-0.724l1.792-1.365L446.264,513.707z"/>
	<path id="SV" fill="#FFFFFF" d="M338.562,514.256l-0.169,0.882l-1.925,0.43l-1.272-0.02l-1.538-0.332l-1.896,0.247l-1.117-0.502
		l-0.018-0.522l0.923-1.132l0.52-0.532l-0.276-0.356l0.73-0.396l1.049,0.037l0.877,0.497l1.141,0.294l0.233,0.434l1.353-0.767
		l0.745,0.065l0.54,0.257L338.562,514.256z"/>
	<path id="TT" fill="#FFFFFF" d="M427.275,501.524l1.794-0.911l0.727-0.056l0.491,2.523l-2.674,1.056l-0.675-0.145l0.738-1.162
		L427.275,501.524z"/>
	<path id="US" fill="#FFFFFF" d="M153.972,377.106L153.972,377.106l-2.359-1.709l-3.38-1.128l-2.218-4.918l-5.482-3.816
		l-3.239-5.393l-3.278,0.391l-5.308,1.161l-4.341-0.85l-8.515-4.956l-3.476-0.45l-6.375-0.908l-4.443,1.709l-7.273-1.437
		l-4.65-1.889l-3.318,2.346l1.842,4.472l-1.724,0.882l-3.487,2.324l-2.371,2.925l-3.333,2.288l-1.427-3.71l-0.141-6.906l3-2.969
		l-1.34-1.499l-3.27,4.857l-1.146,5.017l-3.61,5.857l3.202,2.527l-1.997,5.33l-2.905,3.498l-2.852,2.707l-0.14,2.91l-4.4,4.396
		l-0.356,3.051l-3.248,3.484l-2.38,0.117l-2.689,2.4l-2.875,2.814l-2.272,2.611l-5.277,3.047l-0.759-0.827l2.958-3.587l2.792-2.59
		l2.734-4.083l3.948-1.687l1.024-2.841l3.697-4.749l0.441-1.402l1.907-2.772l-0.612-4.868l0.755-4.167l-3.334,2.89l-1.337-0.834
		l-1.221,2.752l-2.967-2.686l-0.326,2.516l-2.036-2.881l-2.669,3.39l-2.031,0.507l-1.235-3.746l0.007-2.538l-2.722-1.806
		l-3.997,2.341l-3.575-2.41l-2.669-1.041l-0.97-3.837l-3.282-2.294l0.271-4.347l1.713-4.656l0.254-4.017l2.549-1.2l2.56,0.604
		l1.784-4.223l2.569,0.038l1.95-2.947l-1.475-3.297l-2.197-0.909l1.715-3.589l-2.012,0.589l-3.101,2.567l-0.583,1.94l-3.032-1.039
		l-4.476,2.032l-5.315-0.633l-2.175-2.783l-5.346-3.574l3.81-4.552l6.379-5.87l2.729-0.681l0.576,4.223l6.915-2.062l-3.973-4.457
		l-4.878-2.197l-3.423-3.714l-4.111-2.953l-5.25-1.678l0.668-5.224l5.798-1.759l3.128-5.273l-0.363-4.83l2.227-5.462l2.945-1.927
		l5.167-6.006l3.216-0.087l3.735-6.716l5.549,0.914l3.539,3.974l0.991-2.317l5.75-0.793l0.373,2.354l5.49,0.425l3.132-1.834
		l7.761,1.378l6.598-0.666l2.867,0.628l4.012-2.683l5.746,1.655l3.937,0.437l8.122,32.675l10.425,41.864l3.312-0.612l3.685,1.039
		l3.035,2.306l4.002,3.52l2.327-4.408l2.793-2.943l2.6,2.928l2.891,2.078l3.749,2.103l3.184,3.962l5.124,6.102l6.579,2.376
		l1.013,3.663L153.972,377.106z M371.979,365.958l-1.827-1.038l-2.016,1.382l-1.416-1.002l-1.617,4.294l-0.087,3.974l-0.646,2.445
		l-1.224,1.083l-1.005,0.502l-0.041,1.24l-6.108,1.523l-5.026,1.29l-1.285,1.238l-2.586,4.07l0.503,0.553l0.646,1.733l-2.108,2.119
		l-2.812,0.3l-2.641,0.483l-1.441,0.91l0.634,1.286l0,0l0.169,0.421l-2.191,3.396l-2.171,1.91l-1.551,1.026l-1.659,1.705
		l-2.252,1.188l-1.709,0.188l-2.27-0.398l0.706-2l0.343-1.74l0.944-2.858l-0.628-1.813l-1.251-2.5l-1.343-0.155l-1.557,2.521
		l-0.67,0.13l-0.451-1.106l1.359-2.296l-0.22-2.192l-0.799-2.046l-2.914-1.219l-3.048-0.244l-0.012,1.912l-0.615,0.654l-0.017,2.452
		l-0.699-1.495l-1.044,1.451l-0.438,1.767l-0.297,2.483l0.317,1.98l1.8,2.539l0.645,2.988l-0.805,2.51l-0.521,0.782l-0.776,0.709
		l-1.117,0.303l-0.381-0.22l-1.48-2.116l-0.312-1.15l-0.184-1.136l-0.963-2.105l-0.016-2.73l-0.053-3.389l0.832-4.008l-0.493,0.135
		l-1.686,3.608l-0.584-0.432l0.881-2.001l1.217-3.529l2.151-0.988l2.352-1.591l2.734-0.156l0.112-0.003l2.812-1.152l-2.127-1.488
		l-0.926,0.066l-1.064,0.063l-1.031-1.172l-3.145,1.235l-2.676,1.798l-2.785-1.252l-2.032-0.145l0.424-2.83l-2.527,2.349
		l-2.267,2.233l-2.245,1.867l-2.445-1.148l-3.07,1.833l-0.165-0.711l1.735-2.604l1.865-2.536l2.976-2.461l-4.397-0.271l-2.519,1.319
		l-3.597-0.735l-3.578,0.051l-2.391,0.271l-1.241-0.594l-1.283-2.629l-1.117,0.303l0.472,1.941l-6.852,1.708l-11.331,2.825
		l-11.262,2.808l-9.949,2.48l-9.937,2.478l-9.771,2.436l-10.101,2.519l-3.262,0.813l-9.83,2.45l-9.405,2.346l2.145,3.819
		l1.537,3.897l-0.494,1.49l-2.912-4.181l-5.204-0.485l-0.16,1.069l1.54,2.05l2.092,3.91l2.199,6.253l0.656,4.343l0.642,4.282
		l-0.237,4.59l1.918,3.161l1.061,3.751l0.177,3.784l2.346,1.912l1.331,3.371l3.445,2.894l1.81,1.018l0.124,0.998l4.193,5.04
		l4.229,3.274l0.953,2.11l1.001,0.438l3.169-0.376l1.45,0.781l1.906-0.262l0.648,1.044l1.666,0.086l2.716,1.732l1.056,1.869
		l3.695-1.235l4.1-1.474l-0.116,0.845l5.469,0.644l8.242,0.843l6.587-1.666l2.623-0.654l-0.386-1.598l5.742-1.432l1.547,1.07
		l1.992,0.795l2.395,1.197l1.597,1.725l1.349,1.884l2,0.72l3.036,0.447l1.346-3.51l2.688-0.746l2.717,0.929l2.309,2.162l1.694,1.911
		l2.48,1.64l1.377,2.407l1.367,1.502l2.871,0.49l2.551,0.217l1.261-0.427l-0.938-1.098l-0.607-1.73l-0.601-2.562l0.349-1.869
		l1.363-2.235l2.893-2.439l2.314-3.552l2.568-1.582l1.988-0.784l2.629,0.272l2.777-1.193l2.967,1.383l2.429-0.48l1.06-1.029
		l1.367,0.248l0.503-0.654l-0.895-0.565l-0.324-1.552l-0.843-0.869l1.223-0.932l2.463-0.891l3.049-0.31l3.624-1.418l2.315,0.428
		l2.049,1.37l0.638,0.042l2.913-2.559l1.433,0.259l3.377,2.521l1.449,1.835l-0.067,2.655l0.859,1.328l2.243,2.451l2.55,2.729
		l1.473,0.523l0.918,1.465l1.74,0.032l0.877-0.709l0.27-2.441l-0.214-1.464l-0.513-2.508l-2.646-3.921l-0.428-1.614l-2.139-2.29
		l-1.921-2.972l-1.254-2.512l-0.172-2.854l0.988-2.684l1.404-2.319l3.003-3.459l0.143-1.441l1.315-1.872l1.59-0.671l1.59-2.883
		l3.128-2.047l1.359-3.515l-1.481-3.973l-0.7-1.344l-1.016-0.048l-1.129-3.923l-2.616-0.777l2.351,0.116l-1.373-2.495l0.182-1.988
		l1.263,3.41l2.09,1.187l-0.32,3.091l0.348,0.09l1.039-3.785l0.657-1.896l-0.444-1.583l-1.018-0.55l-1.256-2.121l1.353,0.792
		l0.787,0.042l0.52,1.025l1.592-3.887l-0.051-3.275l-1.032,0.044l0.704-1.454l0.038,0.555l2.112-0.539l4.316-2.469l-1.187-0.585
		l-4.663,2.044l2.45-1.955l1.872-0.693l1.386-0.583l2.254-1.378l1.616-0.315l2.054-1.278l-0.055-1.329l-1.239-0.746l0.747,1.535
		l-1.396,0.235l-1.686-2.078l-0.558-2.384l0.314-1.157l1.078-3.129l3.157-2.231l3.01-2.433l2.973-3.126l-0.947-1.381l-2.826-2.119
		L371.979,365.958z M74.076,376.934l-1.536,1.387l-2.465,2.949l1.22,2.732l2.079,1.138l2.733-3.129l2.144-3.634l-1.886-1.576
		L74.076,376.934z M11.759,356.617l2.039-2.089l0.072-0.872l-2.88-0.123L11.759,356.617z M26.329,372.273l-2.987,1.962l2.456,1.295
		l2.48,0.687l1.777-1.536l-0.953-2.46L26.329,372.273z M150.924,381.995l-3.065,1.241l-1.743-0.343l0.247,1.846l1.224,2.293
		l2.108,1.307l1.857,2.21l2.616,1.983l1.326-0.318l-3.973-3.652L150.924,381.995z M105.28,544.822l-1.263-0.035l-0.243,0.386
		l0.079,0.22l0.449,0.187l0.753,0.605l1.049-0.526l0.166-0.493L105.28,544.822z M101.589,545.066l1.799-0.337l0.011-0.405
		l-1.668,0.255L101.589,545.066z M109.517,547.217l-0.667-0.159l-1.412-0.275l-0.265-0.008l-0.106,0.378l0.395,0.629l-0.437,0.712
		l-0.068,0.432l0.861,1.14l0.149,1.004l0.952,0.291l0.34-0.7l0.928-0.81l1.114-1.067l0.035-0.21l-1.146-1.021L109.517,547.217z
		 M98.717,543.461l-0.765,0.705l0.165,0.108l0.625,0.697l1.19-0.157l0.247-0.013l0.127-0.245l-1.248-0.931L98.717,543.461z
		 M93.058,542.914l-0.419,0.481l-0.113,0.303l1.273,0.374l0.302-0.452l-0.277-0.809L93.058,542.914z"/>
	<path id="UY" fill="#FFFFFF" d="M475.633,638.244l2.051-0.938l4.057,2.126l1.203-0.411l4.027,1.604l3.137,1.502l2.575,2.18
		l-1.001,2.221l1.479,2.017l-0.806,2.859l-3.19,3.157l-2.646-0.194l-1.688,0.884l-3.489-0.961l-2.213,0.69l-2.57-1.704l-0.376-2.619
		l0.503-1.053l-1.008-3.892l-0.105-4.202L475.633,638.244z"/>
	<path id="VE" fill="#FFFFFF" d="M394.453,506.08l0.103,0.815l-1.853,0.875l1.467,1.255l0.392,1.772l-0.972,2.298l1.913,2.335
		l1.378-0.569l0.144-2.594l-1.322-0.926l-0.796-2.488l3.781-2.398l-0.856-1.469l0.893-1.352l1.781,2.066l2.343-0.521l2.616,1.331
		l0.407,1.078l2.972-0.717l3.458-1.226l2.277,1.025l2.631-0.218l1.597-1.501l-0.177-0.859l4.06-1.226l3.96-1.037l-2.564,1.693
		l1.516,1.304l2.72-0.415l2.916,1.018l1.197,2.537l1.703-0.512l1.498,0.466l-2.137,2.604l0.007,1.29l1.441,0.947l-0.663,0.817
		l-1.908,1.043l0.451,1.517l-0.672,1.135l2.859,1.949l0.681,0.821l-0.901,1.567l-3.402,2.154l-2.245,1.111l-0.763,1.02l-2.842-0.172
		l-2.562,0.188l-0.538,0.459l1.688,0.483l0.42,2.241l0.979,1.964l2.871-0.414l0.36,0.638l-2.14,1.54l-0.03,1.488l-1.237,0.872
		l-2.267,1.382l-0.384,1.177l-2.522,0.854l-2.268-1.292l-1.82-3.022l-1.176-0.937l-1.383-0.421l1.268-2.061l-0.292-0.72
		l-1.191-0.744l-1.206-2.021l-0.333-2.439l0.458-1.293l0.16-1.923l-1.314-0.288l-1.796,0.851l-2.431,0.417l-1.247,0.688
		l-3.049-2.265l-2.032,0.053l-4.173,1.382l-1.081-0.961l-0.883-0.068l-0.292-0.669l0.083-1.327l-0.594-1.268l-0.915-0.552
		l-0.807-1.429l-1.755,0.212l0.421-2.188l-0.179-2.478l0.645-1.492l1.05-1.278l0.421-1.887L394.453,506.08z"/>
</g>
</svg>
